<?xml version="1.0" encoding="UTF-8" standalone="no"?><!-- Generator: Gravit.io --><svg xmlns="http://www.w3.org/2000/svg" xmlns:xlink="http://www.w3.org/1999/xlink" style="isolation:isolate" viewBox="0 0 397 126" width="397pt" height="126pt"><defs><radialGradient id="_rgradient_0" fx="86.26062971569937%" fy="25.847232697007616%" cx="50%" cy="50%" r="50%"><stop offset="0%" style="stop-color:#8B8DFF"/><stop offset="100%" style="stop-color:#620255"/></radialGradient></defs><path d="M 16.156 0.5 L 381.844 0.5 C 390.485 0.5 397.5 7.515 397.5 16.156 L 397.5 110.844 C 397.5 119.485 390.485 126.5 381.844 126.5 L 16.156 126.5 C 7.515 126.5 0.5 119.485 0.5 110.844 L 0.5 16.156 C 0.5 7.515 7.515 0.5 16.156 0.5 Z" style="stroke:none;fill:url(#_rgradient_0);stroke-miterlimit:10;"/><path d="M 16.156 0.5 L 381.844 0.5 C 390.485 0.5 397.5 7.515 397.5 16.156 L 397.5 110.844 C 397.5 119.485 390.485 126.5 381.844 126.5 L 16.156 126.5 C 7.515 126.5 0.5 119.485 0.5 110.844 L 0.5 16.156 C 0.5 7.515 7.515 0.5 16.156 0.5 Z" style="fill:none;stroke:#000000;stroke-width:3;stroke-linecap:square;stroke-miterlimit:2;"/><path d=" M 166.516 34.138 L 173.588 34.138 L 173.588 34.138 Q 171.004 41.618 168.658 47.976 L 168.658 47.976 L 168.658 47.976 Q 166.312 54.334 164.068 60.046 L 164.068 60.046 L 164.068 60.046 Q 161.824 65.758 159.614 70.96 L 159.614 70.96 L 159.614 70.96 Q 157.404 76.162 155.092 81.262 L 155.092 81.262 L 148.904 81.262 L 148.904 81.262 Q 146.592 76.162 144.382 70.96 L 144.382 70.96 L 144.382 70.96 Q 142.172 65.758 139.894 60.046 L 139.894 60.046 L 139.894 60.046 Q 137.616 54.334 135.236 47.976 L 135.236 47.976 L 135.236 47.976 Q 132.856 41.618 130.34 34.138 L 130.34 34.138 L 137.616 34.138 L 137.616 34.138 Q 141.288 44.882 144.824 54.81 L 144.824 54.81 L 144.824 54.81 Q 148.36 64.738 152.1 73.442 L 152.1 73.442 L 152.1 73.442 Q 155.84 64.806 159.376 54.844 L 159.376 54.844 L 159.376 54.844 Q 162.912 44.882 166.516 34.138 L 166.516 34.138 L 166.516 34.138 Z  M 186.032 45.902 L 186.032 81.262 L 179.708 81.262 L 179.708 45.902 L 186.032 45.902 L 186.032 45.902 Z  M 182.836 39.51 L 182.836 39.51 L 182.836 39.51 Q 181.136 39.51 179.946 38.388 L 179.946 38.388 L 179.946 38.388 Q 178.756 37.266 178.756 35.362 L 178.756 35.362 L 178.756 35.362 Q 178.756 33.458 179.946 32.336 L 179.946 32.336 L 179.946 32.336 Q 181.136 31.214 182.836 31.214 L 182.836 31.214 L 182.836 31.214 Q 184.536 31.214 185.726 32.336 L 185.726 32.336 L 185.726 32.336 Q 186.916 33.458 186.916 35.362 L 186.916 35.362 L 186.916 35.362 Q 186.916 37.266 185.726 38.388 L 185.726 38.388 L 185.726 38.388 Q 184.536 39.51 182.836 39.51 Z  M 205.14 76.706 L 205.14 76.706 L 205.14 76.706 Q 209.016 76.706 210.886 75.686 L 210.886 75.686 L 210.886 75.686 Q 212.756 74.666 212.756 72.422 L 212.756 72.422 L 212.756 72.422 Q 212.756 70.11 210.92 68.75 L 210.92 68.75 L 210.92 68.75 Q 209.084 67.39 204.868 65.69 L 204.868 65.69 L 204.868 65.69 Q 202.828 64.874 200.958 64.024 L 200.958 64.024 L 200.958 64.024 Q 199.088 63.174 197.728 62.018 L 197.728 62.018 L 197.728 62.018 Q 196.368 60.862 195.552 59.23 L 195.552 59.23 L 195.552 59.23 Q 194.736 57.598 194.736 55.218 L 194.736 55.218 L 194.736 55.218 Q 194.736 50.526 198.204 47.772 L 198.204 47.772 L 198.204 47.772 Q 201.672 45.018 207.656 45.018 L 207.656 45.018 L 207.656 45.018 Q 209.152 45.018 210.648 45.188 L 210.648 45.188 L 210.648 45.188 Q 212.144 45.358 213.436 45.596 L 213.436 45.596 L 213.436 45.596 Q 214.728 45.834 215.714 46.106 L 215.714 46.106 L 215.714 46.106 Q 216.7 46.378 217.244 46.582 L 217.244 46.582 L 216.088 52.022 L 216.088 52.022 Q 215.068 51.478 212.892 50.9 L 212.892 50.9 L 212.892 50.9 Q 210.716 50.322 207.656 50.322 L 207.656 50.322 L 207.656 50.322 Q 205.004 50.322 203.032 51.376 L 203.032 51.376 L 203.032 51.376 Q 201.06 52.43 201.06 54.674 L 201.06 54.674 L 201.06 54.674 Q 201.06 55.83 201.502 56.714 L 201.502 56.714 L 201.502 56.714 Q 201.944 57.598 202.862 58.312 L 202.862 58.312 L 202.862 58.312 Q 203.78 59.026 205.14 59.638 L 205.14 59.638 L 205.14 59.638 Q 206.5 60.25 208.404 60.93 L 208.404 60.93 L 208.404 60.93 Q 210.92 61.882 212.892 62.8 L 212.892 62.8 L 212.892 62.8 Q 214.864 63.718 216.258 64.942 L 216.258 64.942 L 216.258 64.942 Q 217.652 66.166 218.4 67.9 L 218.4 67.9 L 218.4 67.9 Q 219.148 69.634 219.148 72.15 L 219.148 72.15 L 219.148 72.15 Q 219.148 77.046 215.51 79.562 L 215.51 79.562 L 215.51 79.562 Q 211.872 82.078 205.14 82.078 L 205.14 82.078 L 205.14 82.078 Q 200.448 82.078 197.796 81.296 L 197.796 81.296 L 197.796 81.296 Q 195.144 80.514 194.192 80.106 L 194.192 80.106 L 195.348 74.666 L 195.348 74.666 Q 196.436 75.074 198.816 75.89 L 198.816 75.89 L 198.816 75.89 Q 201.196 76.706 205.14 76.706 Z  M 233.564 45.902 L 233.564 81.262 L 227.24 81.262 L 227.24 45.902 L 233.564 45.902 L 233.564 45.902 Z  M 230.368 39.51 L 230.368 39.51 L 230.368 39.51 Q 228.668 39.51 227.478 38.388 L 227.478 38.388 L 227.478 38.388 Q 226.288 37.266 226.288 35.362 L 226.288 35.362 L 226.288 35.362 Q 226.288 33.458 227.478 32.336 L 227.478 32.336 L 227.478 32.336 Q 228.668 31.214 230.368 31.214 L 230.368 31.214 L 230.368 31.214 Q 232.068 31.214 233.258 32.336 L 233.258 32.336 L 233.258 32.336 Q 234.448 33.458 234.448 35.362 L 234.448 35.362 L 234.448 35.362 Q 234.448 37.266 233.258 38.388 L 233.258 38.388 L 233.258 38.388 Q 232.068 39.51 230.368 39.51 Z  M 250.36 34.954 L 250.36 45.902 L 263.756 45.902 L 263.756 51.206 L 250.36 51.206 L 250.36 67.526 L 250.36 67.526 Q 250.36 70.178 250.768 71.912 L 250.768 71.912 L 250.768 71.912 Q 251.176 73.646 251.992 74.632 L 251.992 74.632 L 251.992 74.632 Q 252.808 75.618 254.032 76.026 L 254.032 76.026 L 254.032 76.026 Q 255.256 76.434 256.888 76.434 L 256.888 76.434 L 256.888 76.434 Q 259.744 76.434 261.478 75.788 L 261.478 75.788 L 261.478 75.788 Q 263.212 75.142 263.892 74.87 L 263.892 74.87 L 265.116 80.106 L 265.116 80.106 Q 264.164 80.582 261.784 81.296 L 261.784 81.296 L 261.784 81.296 Q 259.404 82.01 256.344 82.01 L 256.344 82.01 L 256.344 82.01 Q 252.74 82.01 250.394 81.092 L 250.394 81.092 L 250.394 81.092 Q 248.048 80.174 246.62 78.338 L 246.62 78.338 L 246.62 78.338 Q 245.192 76.502 244.614 73.816 L 244.614 73.816 L 244.614 73.816 Q 244.036 71.13 244.036 67.594 L 244.036 67.594 L 244.036 36.042 L 250.36 34.954 L 250.36 34.954 Z " fill="rgb(255,255,255)"/></svg>