<?xml version="1.0" encoding="UTF-8" standalone="no"?><!-- Generator: Gravit.io --><svg xmlns="http://www.w3.org/2000/svg" xmlns:xlink="http://www.w3.org/1999/xlink" style="isolation:isolate" viewBox="0 0 732.224 163" width="732.224pt" height="163pt"><linearGradient id="_lgradient_0" x1="0.4973142163970663" y1="-1.6504962479552898" x2="0.49845724120325524" y2="0.8698160247203262" gradientTransform="matrix(547.497,0,0,100.33,11.54,30.128)" gradientUnits="userSpaceOnUse"><stop offset="0%" stop-opacity="1" style="stop-color:rgb(255,255,255)"/><stop offset="100%" stop-opacity="0" style="stop-color:rgb(255,255,255)"/></linearGradient><mask id="_mask_fEAmSP0jqdKwOoryEUklqo9IjNjxrjap" x="-200%" y="-200%" width="400%" height="400%"><rect x="-200%" y="-200%" width="400%" height="400%" style="fill:white;"/><path d=" M 61.388 50.067 L 78.279 50.067 L 78.279 50.067 Q 79.803 55.274 81.644 61.815 L 81.644 61.815 L 81.644 61.815 Q 83.486 68.355 85.581 75.34 L 85.581 75.34 L 85.581 75.34 Q 87.677 82.325 89.836 89.31 L 89.836 89.31 L 89.836 89.31 Q 91.995 96.296 94.027 102.265 L 94.027 102.265 L 94.027 102.265 Q 95.686 95.788 97.409 88.167 L 97.409 88.167 L 97.409 88.167 Q 99.133 80.547 100.665 72.42 L 100.665 72.42 L 100.665 72.42 Q 102.196 64.292 103.664 56.227 L 103.664 56.227 L 103.664 56.227 Q 105.132 48.162 106.409 40.67 L 106.409 40.67 L 126.983 40.67 L 126.983 40.67 Q 122.561 62.768 116.812 85.5 L 116.812 85.5 L 116.812 85.5 Q 111.064 108.233 104.368 128.681 L 104.368 128.681 L 86.02 128.681 L 86.02 128.681 Q 81.577 116.488 77.387 103.09 L 77.387 103.09 L 77.387 103.09 Q 73.197 89.691 69.135 76.23 L 69.135 76.23 L 69.135 76.23 Q 65.072 89.691 61.01 103.09 L 61.01 103.09 L 61.01 103.09 Q 56.948 116.488 52.505 128.681 L 52.505 128.681 L 34.241 128.681 L 34.241 128.681 Q 27.519 108.233 21.749 85.5 L 21.749 85.5 L 21.749 85.5 Q 15.979 62.768 11.54 40.67 L 11.54 40.67 L 33.003 40.67 L 33.003 40.67 Q 34.279 48.162 35.811 56.227 L 35.811 56.227 L 35.811 56.227 Q 37.342 64.292 39.002 72.42 L 39.002 72.42 L 39.002 72.42 Q 40.661 80.547 42.384 88.167 L 42.384 88.167 L 42.384 88.167 Q 44.107 95.788 45.894 102.265 L 45.894 102.265 L 45.894 102.265 Q 48.18 96.041 50.339 89.057 L 50.339 89.057 L 50.339 89.057 Q 52.498 82.071 54.53 75.087 L 54.53 75.087 L 54.53 75.087 Q 56.562 68.101 58.276 61.625 L 58.276 61.625 L 58.276 61.625 Q 59.991 55.147 61.388 50.067 L 61.388 50.067 L 61.388 50.067 Z  M 135.111 95.788 L 135.111 95.788 L 135.111 95.788 Q 135.111 86.898 137.842 80.23 L 137.842 80.23 L 137.842 80.23 Q 140.572 73.563 145.017 69.117 L 145.017 69.117 L 145.017 69.117 Q 149.462 64.673 155.241 62.387 L 155.241 62.387 L 155.241 62.387 Q 161.019 60.101 167.115 60.101 L 167.115 60.101 L 167.115 60.101 Q 181.339 60.101 189.594 68.8 L 189.594 68.8 L 189.594 68.8 Q 197.849 77.5 197.849 94.391 L 197.849 94.391 L 197.849 94.391 Q 197.849 96.041 197.722 98.01 L 197.722 98.01 L 197.722 98.01 Q 197.595 99.979 197.468 101.503 L 197.468 101.503 L 154.542 101.503 L 154.542 101.503 Q 155.177 107.345 160.003 110.774 L 160.003 110.774 L 160.003 110.774 Q 164.829 114.203 172.957 114.203 L 172.957 114.203 L 172.957 114.203 Q 178.164 114.203 183.181 113.25 L 183.181 113.25 L 183.181 113.25 Q 188.197 112.298 191.372 110.901 L 191.372 110.901 L 193.912 126.268 L 193.912 126.268 Q 192.388 127.03 189.848 127.792 L 189.848 127.792 L 189.848 127.792 Q 187.308 128.553 184.197 129.125 L 184.197 129.125 L 184.197 129.125 Q 181.085 129.697 177.529 130.077 L 177.529 130.077 L 177.529 130.077 Q 173.973 130.459 170.417 130.459 L 170.417 130.459 L 170.417 130.459 Q 161.4 130.459 154.733 127.792 L 154.733 127.792 L 154.733 127.792 Q 148.065 125.125 143.684 120.489 L 143.684 120.489 L 143.684 120.489 Q 139.302 115.854 137.207 109.504 L 137.207 109.504 L 137.207 109.504 Q 135.111 103.154 135.111 95.788 Z  M 154.542 88.548 L 179.561 88.548 L 179.561 88.548 Q 179.434 86.136 178.736 83.849 L 178.736 83.849 L 178.736 83.849 Q 178.037 81.564 176.577 79.785 L 176.577 79.785 L 176.577 79.785 Q 175.116 78.008 172.894 76.864 L 172.894 76.864 L 172.894 76.864 Q 170.671 75.721 167.369 75.721 L 167.369 75.721 L 167.369 75.721 Q 164.194 75.721 161.908 76.801 L 161.908 76.801 L 161.908 76.801 Q 159.622 77.881 158.098 79.659 L 158.098 79.659 L 158.098 79.659 Q 156.574 81.437 155.749 83.786 L 155.749 83.786 L 155.749 83.786 Q 154.923 86.136 154.542 88.548 L 154.542 88.548 L 154.542 88.548 Z  M 241.791 114.33 L 239.124 129.95 L 239.124 129.95 Q 230.869 129.824 225.726 128.173 L 225.726 128.173 L 225.726 128.173 Q 220.582 126.521 217.598 123.537 L 217.598 123.537 L 217.598 123.537 Q 214.613 120.553 213.534 116.298 L 213.534 116.298 L 213.534 116.298 Q 212.454 112.044 212.454 106.709 L 212.454 106.709 L 212.454 33.176 L 231.377 30.128 L 231.377 102.899 L 231.377 102.899 Q 231.377 105.44 231.758 107.471 L 231.758 107.471 L 231.758 107.471 Q 232.139 109.504 233.219 110.901 L 233.219 110.901 L 233.219 110.901 Q 234.298 112.298 236.33 113.187 L 236.33 113.187 L 236.33 113.187 Q 238.362 114.075 241.791 114.33 L 241.791 114.33 L 241.791 114.33 Z  M 249.411 95.279 L 249.411 95.279 L 249.411 95.279 Q 249.411 88.041 251.761 81.627 L 251.761 81.627 L 251.761 81.627 Q 254.11 75.214 258.555 70.451 L 258.555 70.451 L 258.555 70.451 Q 263 65.688 269.35 62.894 L 269.35 62.894 L 269.35 62.894 Q 275.7 60.101 283.828 60.101 L 283.828 60.101 L 283.828 60.101 Q 289.162 60.101 293.607 61.053 L 293.607 61.053 L 293.607 61.053 Q 298.052 62.006 302.243 63.783 L 302.243 63.783 L 298.306 78.897 L 298.306 78.897 Q 295.639 77.881 292.464 77.119 L 292.464 77.119 L 292.464 77.119 Q 289.289 76.357 285.352 76.357 L 285.352 76.357 L 285.352 76.357 Q 276.97 76.357 272.843 81.564 L 272.843 81.564 L 272.843 81.564 Q 268.715 86.771 268.715 95.279 L 268.715 95.279 L 268.715 95.279 Q 268.715 104.297 272.589 109.25 L 272.589 109.25 L 272.589 109.25 Q 276.462 114.203 286.114 114.203 L 286.114 114.203 L 286.114 114.203 Q 289.543 114.203 293.48 113.568 L 293.48 113.568 L 293.48 113.568 Q 297.417 112.932 300.719 111.536 L 300.719 111.536 L 303.386 127.03 L 303.386 127.03 Q 300.084 128.426 295.131 129.443 L 295.131 129.443 L 295.131 129.443 Q 290.178 130.459 284.209 130.459 L 284.209 130.459 L 284.209 130.459 Q 275.065 130.459 268.461 127.728 L 268.461 127.728 L 268.461 127.728 Q 261.857 124.998 257.603 120.298 L 257.603 120.298 L 257.603 120.298 Q 253.348 115.599 251.38 109.186 L 251.38 109.186 L 251.38 109.186 Q 249.411 102.773 249.411 95.279 Z  M 375.395 95.153 L 375.395 95.153 L 375.395 95.153 Q 375.395 103.027 373.109 109.567 L 373.109 109.567 L 373.109 109.567 Q 370.823 116.107 366.505 120.743 L 366.505 120.743 L 366.505 120.743 Q 362.187 125.378 356.155 127.919 L 356.155 127.919 L 356.155 127.919 Q 350.122 130.459 342.629 130.459 L 342.629 130.459 L 342.629 130.459 Q 335.263 130.459 329.231 127.919 L 329.231 127.919 L 329.231 127.919 Q 323.198 125.378 318.88 120.743 L 318.88 120.743 L 318.88 120.743 Q 314.562 116.107 312.149 109.567 L 312.149 109.567 L 312.149 109.567 Q 309.736 103.027 309.736 95.153 L 309.736 95.153 L 309.736 95.153 Q 309.736 87.279 312.213 80.802 L 312.213 80.802 L 312.213 80.802 Q 314.689 74.325 319.071 69.753 L 319.071 69.753 L 319.071 69.753 Q 323.452 65.18 329.485 62.64 L 329.485 62.64 L 329.485 62.64 Q 335.517 60.101 342.629 60.101 L 342.629 60.101 L 342.629 60.101 Q 349.868 60.101 355.901 62.64 L 355.901 62.64 L 355.901 62.64 Q 361.933 65.18 366.251 69.753 L 366.251 69.753 L 366.251 69.753 Q 370.569 74.325 372.982 80.802 L 372.982 80.802 L 372.982 80.802 Q 375.395 87.279 375.395 95.153 Z  M 356.091 95.153 L 356.091 95.153 L 356.091 95.153 Q 356.091 86.39 352.599 81.373 L 352.599 81.373 L 352.599 81.373 Q 349.106 76.357 342.629 76.357 L 342.629 76.357 L 342.629 76.357 Q 336.152 76.357 332.596 81.373 L 332.596 81.373 L 332.596 81.373 Q 329.04 86.39 329.04 95.153 L 329.04 95.153 L 329.04 95.153 Q 329.04 103.916 332.596 109.059 L 332.596 109.059 L 332.596 109.059 Q 336.152 114.203 342.629 114.203 L 342.629 114.203 L 342.629 114.203 Q 349.106 114.203 352.599 109.059 L 352.599 109.059 L 352.599 109.059 Q 356.091 103.916 356.091 95.153 Z  M 426.703 128.681 L 426.703 93.248 L 426.703 93.248 Q 426.703 84.104 424.354 80.294 L 424.354 80.294 L 424.354 80.294 Q 422.004 76.483 416.289 76.483 L 416.289 76.483 L 416.289 76.483 Q 414.511 76.483 412.606 76.674 L 412.606 76.674 L 412.606 76.674 Q 410.701 76.864 408.923 77.119 L 408.923 77.119 L 408.923 128.681 L 390 128.681 L 390 64.164 L 390 64.164 Q 392.413 63.53 395.652 62.831 L 395.652 62.831 L 395.652 62.831 Q 398.89 62.132 402.51 61.561 L 402.51 61.561 L 402.51 61.561 Q 406.129 60.989 409.939 60.672 L 409.939 60.672 L 409.939 60.672 Q 413.749 60.354 417.432 60.354 L 417.432 60.354 L 417.432 60.354 Q 424.671 60.354 429.18 62.196 L 429.18 62.196 L 429.18 62.196 Q 433.688 64.037 436.609 66.577 L 436.609 66.577 L 436.609 66.577 Q 440.673 63.656 445.944 62.006 L 445.944 62.006 L 445.944 62.006 Q 451.214 60.354 455.659 60.354 L 455.659 60.354 L 455.659 60.354 Q 463.66 60.354 468.804 62.577 L 468.804 62.577 L 468.804 62.577 Q 473.947 64.799 476.995 68.863 L 476.995 68.863 L 476.995 68.863 Q 480.043 72.928 481.186 78.516 L 481.186 78.516 L 481.186 78.516 Q 482.329 84.104 482.329 90.962 L 482.329 90.962 L 482.329 128.681 L 463.406 128.681 L 463.406 93.248 L 463.406 93.248 Q 463.406 84.104 461.057 80.294 L 461.057 80.294 L 461.057 80.294 Q 458.707 76.483 452.992 76.483 L 452.992 76.483 L 452.992 76.483 Q 451.468 76.483 448.738 77.246 L 448.738 77.246 L 448.738 77.246 Q 446.007 78.008 444.229 79.151 L 444.229 79.151 L 444.229 79.151 Q 445.118 82.071 445.372 85.31 L 445.372 85.31 L 445.372 85.31 Q 445.626 88.548 445.626 92.232 L 445.626 92.232 L 445.626 128.681 L 426.703 128.681 L 426.703 128.681 Z  M 496.299 95.788 L 496.299 95.788 L 496.299 95.788 Q 496.299 86.898 499.03 80.23 L 499.03 80.23 L 499.03 80.23 Q 501.76 73.563 506.205 69.117 L 506.205 69.117 L 506.205 69.117 Q 510.65 64.673 516.429 62.387 L 516.429 62.387 L 516.429 62.387 Q 522.207 60.101 528.303 60.101 L 528.303 60.101 L 528.303 60.101 Q 542.527 60.101 550.782 68.8 L 550.782 68.8 L 550.782 68.8 Q 559.037 77.5 559.037 94.391 L 559.037 94.391 L 559.037 94.391 Q 559.037 96.041 558.91 98.01 L 558.91 98.01 L 558.91 98.01 Q 558.783 99.979 558.656 101.503 L 558.656 101.503 L 515.73 101.503 L 515.73 101.503 Q 516.365 107.345 521.191 110.774 L 521.191 110.774 L 521.191 110.774 Q 526.017 114.203 534.145 114.203 L 534.145 114.203 L 534.145 114.203 Q 539.352 114.203 544.369 113.25 L 544.369 113.25 L 544.369 113.25 Q 549.385 112.298 552.56 110.901 L 552.56 110.901 L 555.1 126.268 L 555.1 126.268 Q 553.576 127.03 551.036 127.792 L 551.036 127.792 L 551.036 127.792 Q 548.496 128.553 545.385 129.125 L 545.385 129.125 L 545.385 129.125 Q 542.273 129.697 538.717 130.077 L 538.717 130.077 L 538.717 130.077 Q 535.161 130.459 531.605 130.459 L 531.605 130.459 L 531.605 130.459 Q 522.588 130.459 515.92 127.792 L 515.92 127.792 L 515.92 127.792 Q 509.253 125.125 504.872 120.489 L 504.872 120.489 L 504.872 120.489 Q 500.49 115.854 498.395 109.504 L 498.395 109.504 L 498.395 109.504 Q 496.299 103.154 496.299 95.788 Z  M 515.73 88.548 L 540.749 88.548 L 540.749 88.548 Q 540.622 86.136 539.924 83.849 L 539.924 83.849 L 539.924 83.849 Q 539.225 81.564 537.765 79.785 L 537.765 79.785 L 537.765 79.785 Q 536.304 78.008 534.082 76.864 L 534.082 76.864 L 534.082 76.864 Q 531.859 75.721 528.557 75.721 L 528.557 75.721 L 528.557 75.721 Q 525.382 75.721 523.096 76.801 L 523.096 76.801 L 523.096 76.801 Q 520.81 77.881 519.286 79.659 L 519.286 79.659 L 519.286 79.659 Q 517.762 81.437 516.937 83.786 L 516.937 83.786 L 516.937 83.786 Q 516.111 86.136 515.73 88.548 L 515.73 88.548 L 515.73 88.548 Z " fill="black" stroke="none"/></mask><path d=" M 61.388 50.067 L 78.279 50.067 L 78.279 50.067 Q 79.803 55.274 81.644 61.815 L 81.644 61.815 L 81.644 61.815 Q 83.486 68.355 85.581 75.34 L 85.581 75.34 L 85.581 75.34 Q 87.677 82.325 89.836 89.31 L 89.836 89.31 L 89.836 89.31 Q 91.995 96.296 94.027 102.265 L 94.027 102.265 L 94.027 102.265 Q 95.686 95.788 97.409 88.167 L 97.409 88.167 L 97.409 88.167 Q 99.133 80.547 100.665 72.42 L 100.665 72.42 L 100.665 72.42 Q 102.196 64.292 103.664 56.227 L 103.664 56.227 L 103.664 56.227 Q 105.132 48.162 106.409 40.67 L 106.409 40.67 L 126.983 40.67 L 126.983 40.67 Q 122.561 62.768 116.812 85.5 L 116.812 85.5 L 116.812 85.5 Q 111.064 108.233 104.368 128.681 L 104.368 128.681 L 86.02 128.681 L 86.02 128.681 Q 81.577 116.488 77.387 103.09 L 77.387 103.09 L 77.387 103.09 Q 73.197 89.691 69.135 76.23 L 69.135 76.23 L 69.135 76.23 Q 65.072 89.691 61.01 103.09 L 61.01 103.09 L 61.01 103.09 Q 56.948 116.488 52.505 128.681 L 52.505 128.681 L 34.241 128.681 L 34.241 128.681 Q 27.519 108.233 21.749 85.5 L 21.749 85.5 L 21.749 85.5 Q 15.979 62.768 11.54 40.67 L 11.54 40.67 L 33.003 40.67 L 33.003 40.67 Q 34.279 48.162 35.811 56.227 L 35.811 56.227 L 35.811 56.227 Q 37.342 64.292 39.002 72.42 L 39.002 72.42 L 39.002 72.42 Q 40.661 80.547 42.384 88.167 L 42.384 88.167 L 42.384 88.167 Q 44.107 95.788 45.894 102.265 L 45.894 102.265 L 45.894 102.265 Q 48.18 96.041 50.339 89.057 L 50.339 89.057 L 50.339 89.057 Q 52.498 82.071 54.53 75.087 L 54.53 75.087 L 54.53 75.087 Q 56.562 68.101 58.276 61.625 L 58.276 61.625 L 58.276 61.625 Q 59.991 55.147 61.388 50.067 L 61.388 50.067 L 61.388 50.067 Z  M 135.111 95.788 L 135.111 95.788 L 135.111 95.788 Q 135.111 86.898 137.842 80.23 L 137.842 80.23 L 137.842 80.23 Q 140.572 73.563 145.017 69.117 L 145.017 69.117 L 145.017 69.117 Q 149.462 64.673 155.241 62.387 L 155.241 62.387 L 155.241 62.387 Q 161.019 60.101 167.115 60.101 L 167.115 60.101 L 167.115 60.101 Q 181.339 60.101 189.594 68.8 L 189.594 68.8 L 189.594 68.8 Q 197.849 77.5 197.849 94.391 L 197.849 94.391 L 197.849 94.391 Q 197.849 96.041 197.722 98.01 L 197.722 98.01 L 197.722 98.01 Q 197.595 99.979 197.468 101.503 L 197.468 101.503 L 154.542 101.503 L 154.542 101.503 Q 155.177 107.345 160.003 110.774 L 160.003 110.774 L 160.003 110.774 Q 164.829 114.203 172.957 114.203 L 172.957 114.203 L 172.957 114.203 Q 178.164 114.203 183.181 113.25 L 183.181 113.25 L 183.181 113.25 Q 188.197 112.298 191.372 110.901 L 191.372 110.901 L 193.912 126.268 L 193.912 126.268 Q 192.388 127.03 189.848 127.792 L 189.848 127.792 L 189.848 127.792 Q 187.308 128.553 184.197 129.125 L 184.197 129.125 L 184.197 129.125 Q 181.085 129.697 177.529 130.077 L 177.529 130.077 L 177.529 130.077 Q 173.973 130.459 170.417 130.459 L 170.417 130.459 L 170.417 130.459 Q 161.4 130.459 154.733 127.792 L 154.733 127.792 L 154.733 127.792 Q 148.065 125.125 143.684 120.489 L 143.684 120.489 L 143.684 120.489 Q 139.302 115.854 137.207 109.504 L 137.207 109.504 L 137.207 109.504 Q 135.111 103.154 135.111 95.788 Z  M 154.542 88.548 L 179.561 88.548 L 179.561 88.548 Q 179.434 86.136 178.736 83.849 L 178.736 83.849 L 178.736 83.849 Q 178.037 81.564 176.577 79.785 L 176.577 79.785 L 176.577 79.785 Q 175.116 78.008 172.894 76.864 L 172.894 76.864 L 172.894 76.864 Q 170.671 75.721 167.369 75.721 L 167.369 75.721 L 167.369 75.721 Q 164.194 75.721 161.908 76.801 L 161.908 76.801 L 161.908 76.801 Q 159.622 77.881 158.098 79.659 L 158.098 79.659 L 158.098 79.659 Q 156.574 81.437 155.749 83.786 L 155.749 83.786 L 155.749 83.786 Q 154.923 86.136 154.542 88.548 L 154.542 88.548 L 154.542 88.548 Z  M 241.791 114.33 L 239.124 129.95 L 239.124 129.95 Q 230.869 129.824 225.726 128.173 L 225.726 128.173 L 225.726 128.173 Q 220.582 126.521 217.598 123.537 L 217.598 123.537 L 217.598 123.537 Q 214.613 120.553 213.534 116.298 L 213.534 116.298 L 213.534 116.298 Q 212.454 112.044 212.454 106.709 L 212.454 106.709 L 212.454 33.176 L 231.377 30.128 L 231.377 102.899 L 231.377 102.899 Q 231.377 105.44 231.758 107.471 L 231.758 107.471 L 231.758 107.471 Q 232.139 109.504 233.219 110.901 L 233.219 110.901 L 233.219 110.901 Q 234.298 112.298 236.33 113.187 L 236.33 113.187 L 236.33 113.187 Q 238.362 114.075 241.791 114.33 L 241.791 114.33 L 241.791 114.33 Z  M 249.411 95.279 L 249.411 95.279 L 249.411 95.279 Q 249.411 88.041 251.761 81.627 L 251.761 81.627 L 251.761 81.627 Q 254.11 75.214 258.555 70.451 L 258.555 70.451 L 258.555 70.451 Q 263 65.688 269.35 62.894 L 269.35 62.894 L 269.35 62.894 Q 275.7 60.101 283.828 60.101 L 283.828 60.101 L 283.828 60.101 Q 289.162 60.101 293.607 61.053 L 293.607 61.053 L 293.607 61.053 Q 298.052 62.006 302.243 63.783 L 302.243 63.783 L 298.306 78.897 L 298.306 78.897 Q 295.639 77.881 292.464 77.119 L 292.464 77.119 L 292.464 77.119 Q 289.289 76.357 285.352 76.357 L 285.352 76.357 L 285.352 76.357 Q 276.97 76.357 272.843 81.564 L 272.843 81.564 L 272.843 81.564 Q 268.715 86.771 268.715 95.279 L 268.715 95.279 L 268.715 95.279 Q 268.715 104.297 272.589 109.25 L 272.589 109.25 L 272.589 109.25 Q 276.462 114.203 286.114 114.203 L 286.114 114.203 L 286.114 114.203 Q 289.543 114.203 293.48 113.568 L 293.48 113.568 L 293.48 113.568 Q 297.417 112.932 300.719 111.536 L 300.719 111.536 L 303.386 127.03 L 303.386 127.03 Q 300.084 128.426 295.131 129.443 L 295.131 129.443 L 295.131 129.443 Q 290.178 130.459 284.209 130.459 L 284.209 130.459 L 284.209 130.459 Q 275.065 130.459 268.461 127.728 L 268.461 127.728 L 268.461 127.728 Q 261.857 124.998 257.603 120.298 L 257.603 120.298 L 257.603 120.298 Q 253.348 115.599 251.38 109.186 L 251.38 109.186 L 251.38 109.186 Q 249.411 102.773 249.411 95.279 Z  M 375.395 95.153 L 375.395 95.153 L 375.395 95.153 Q 375.395 103.027 373.109 109.567 L 373.109 109.567 L 373.109 109.567 Q 370.823 116.107 366.505 120.743 L 366.505 120.743 L 366.505 120.743 Q 362.187 125.378 356.155 127.919 L 356.155 127.919 L 356.155 127.919 Q 350.122 130.459 342.629 130.459 L 342.629 130.459 L 342.629 130.459 Q 335.263 130.459 329.231 127.919 L 329.231 127.919 L 329.231 127.919 Q 323.198 125.378 318.88 120.743 L 318.88 120.743 L 318.88 120.743 Q 314.562 116.107 312.149 109.567 L 312.149 109.567 L 312.149 109.567 Q 309.736 103.027 309.736 95.153 L 309.736 95.153 L 309.736 95.153 Q 309.736 87.279 312.213 80.802 L 312.213 80.802 L 312.213 80.802 Q 314.689 74.325 319.071 69.753 L 319.071 69.753 L 319.071 69.753 Q 323.452 65.18 329.485 62.64 L 329.485 62.64 L 329.485 62.64 Q 335.517 60.101 342.629 60.101 L 342.629 60.101 L 342.629 60.101 Q 349.868 60.101 355.901 62.64 L 355.901 62.64 L 355.901 62.64 Q 361.933 65.18 366.251 69.753 L 366.251 69.753 L 366.251 69.753 Q 370.569 74.325 372.982 80.802 L 372.982 80.802 L 372.982 80.802 Q 375.395 87.279 375.395 95.153 Z  M 356.091 95.153 L 356.091 95.153 L 356.091 95.153 Q 356.091 86.39 352.599 81.373 L 352.599 81.373 L 352.599 81.373 Q 349.106 76.357 342.629 76.357 L 342.629 76.357 L 342.629 76.357 Q 336.152 76.357 332.596 81.373 L 332.596 81.373 L 332.596 81.373 Q 329.04 86.39 329.04 95.153 L 329.04 95.153 L 329.04 95.153 Q 329.04 103.916 332.596 109.059 L 332.596 109.059 L 332.596 109.059 Q 336.152 114.203 342.629 114.203 L 342.629 114.203 L 342.629 114.203 Q 349.106 114.203 352.599 109.059 L 352.599 109.059 L 352.599 109.059 Q 356.091 103.916 356.091 95.153 Z  M 426.703 128.681 L 426.703 93.248 L 426.703 93.248 Q 426.703 84.104 424.354 80.294 L 424.354 80.294 L 424.354 80.294 Q 422.004 76.483 416.289 76.483 L 416.289 76.483 L 416.289 76.483 Q 414.511 76.483 412.606 76.674 L 412.606 76.674 L 412.606 76.674 Q 410.701 76.864 408.923 77.119 L 408.923 77.119 L 408.923 128.681 L 390 128.681 L 390 64.164 L 390 64.164 Q 392.413 63.53 395.652 62.831 L 395.652 62.831 L 395.652 62.831 Q 398.89 62.132 402.51 61.561 L 402.51 61.561 L 402.51 61.561 Q 406.129 60.989 409.939 60.672 L 409.939 60.672 L 409.939 60.672 Q 413.749 60.354 417.432 60.354 L 417.432 60.354 L 417.432 60.354 Q 424.671 60.354 429.18 62.196 L 429.18 62.196 L 429.18 62.196 Q 433.688 64.037 436.609 66.577 L 436.609 66.577 L 436.609 66.577 Q 440.673 63.656 445.944 62.006 L 445.944 62.006 L 445.944 62.006 Q 451.214 60.354 455.659 60.354 L 455.659 60.354 L 455.659 60.354 Q 463.66 60.354 468.804 62.577 L 468.804 62.577 L 468.804 62.577 Q 473.947 64.799 476.995 68.863 L 476.995 68.863 L 476.995 68.863 Q 480.043 72.928 481.186 78.516 L 481.186 78.516 L 481.186 78.516 Q 482.329 84.104 482.329 90.962 L 482.329 90.962 L 482.329 128.681 L 463.406 128.681 L 463.406 93.248 L 463.406 93.248 Q 463.406 84.104 461.057 80.294 L 461.057 80.294 L 461.057 80.294 Q 458.707 76.483 452.992 76.483 L 452.992 76.483 L 452.992 76.483 Q 451.468 76.483 448.738 77.246 L 448.738 77.246 L 448.738 77.246 Q 446.007 78.008 444.229 79.151 L 444.229 79.151 L 444.229 79.151 Q 445.118 82.071 445.372 85.31 L 445.372 85.31 L 445.372 85.31 Q 445.626 88.548 445.626 92.232 L 445.626 92.232 L 445.626 128.681 L 426.703 128.681 L 426.703 128.681 Z  M 496.299 95.788 L 496.299 95.788 L 496.299 95.788 Q 496.299 86.898 499.03 80.23 L 499.03 80.23 L 499.03 80.23 Q 501.76 73.563 506.205 69.117 L 506.205 69.117 L 506.205 69.117 Q 510.65 64.673 516.429 62.387 L 516.429 62.387 L 516.429 62.387 Q 522.207 60.101 528.303 60.101 L 528.303 60.101 L 528.303 60.101 Q 542.527 60.101 550.782 68.8 L 550.782 68.8 L 550.782 68.8 Q 559.037 77.5 559.037 94.391 L 559.037 94.391 L 559.037 94.391 Q 559.037 96.041 558.91 98.01 L 558.91 98.01 L 558.91 98.01 Q 558.783 99.979 558.656 101.503 L 558.656 101.503 L 515.73 101.503 L 515.73 101.503 Q 516.365 107.345 521.191 110.774 L 521.191 110.774 L 521.191 110.774 Q 526.017 114.203 534.145 114.203 L 534.145 114.203 L 534.145 114.203 Q 539.352 114.203 544.369 113.25 L 544.369 113.25 L 544.369 113.25 Q 549.385 112.298 552.56 110.901 L 552.56 110.901 L 555.1 126.268 L 555.1 126.268 Q 553.576 127.03 551.036 127.792 L 551.036 127.792 L 551.036 127.792 Q 548.496 128.553 545.385 129.125 L 545.385 129.125 L 545.385 129.125 Q 542.273 129.697 538.717 130.077 L 538.717 130.077 L 538.717 130.077 Q 535.161 130.459 531.605 130.459 L 531.605 130.459 L 531.605 130.459 Q 522.588 130.459 515.92 127.792 L 515.92 127.792 L 515.92 127.792 Q 509.253 125.125 504.872 120.489 L 504.872 120.489 L 504.872 120.489 Q 500.49 115.854 498.395 109.504 L 498.395 109.504 L 498.395 109.504 Q 496.299 103.154 496.299 95.788 Z  M 515.73 88.548 L 540.749 88.548 L 540.749 88.548 Q 540.622 86.136 539.924 83.849 L 539.924 83.849 L 539.924 83.849 Q 539.225 81.564 537.765 79.785 L 537.765 79.785 L 537.765 79.785 Q 536.304 78.008 534.082 76.864 L 534.082 76.864 L 534.082 76.864 Q 531.859 75.721 528.557 75.721 L 528.557 75.721 L 528.557 75.721 Q 525.382 75.721 523.096 76.801 L 523.096 76.801 L 523.096 76.801 Q 520.81 77.881 519.286 79.659 L 519.286 79.659 L 519.286 79.659 Q 517.762 81.437 516.937 83.786 L 516.937 83.786 L 516.937 83.786 Q 516.111 86.136 515.73 88.548 L 515.73 88.548 L 515.73 88.548 Z " fill="url(#_lgradient_0)"/><path d=" M 61.388 50.067 L 78.279 50.067 L 78.279 50.067 Q 79.803 55.274 81.644 61.815 L 81.644 61.815 L 81.644 61.815 Q 83.486 68.355 85.581 75.34 L 85.581 75.34 L 85.581 75.34 Q 87.677 82.325 89.836 89.31 L 89.836 89.31 L 89.836 89.31 Q 91.995 96.296 94.027 102.265 L 94.027 102.265 L 94.027 102.265 Q 95.686 95.788 97.409 88.167 L 97.409 88.167 L 97.409 88.167 Q 99.133 80.547 100.665 72.42 L 100.665 72.42 L 100.665 72.42 Q 102.196 64.292 103.664 56.227 L 103.664 56.227 L 103.664 56.227 Q 105.132 48.162 106.409 40.67 L 106.409 40.67 L 126.983 40.67 L 126.983 40.67 Q 122.561 62.768 116.812 85.5 L 116.812 85.5 L 116.812 85.5 Q 111.064 108.233 104.368 128.681 L 104.368 128.681 L 86.02 128.681 L 86.02 128.681 Q 81.577 116.488 77.387 103.09 L 77.387 103.09 L 77.387 103.09 Q 73.197 89.691 69.135 76.23 L 69.135 76.23 L 69.135 76.23 Q 65.072 89.691 61.01 103.09 L 61.01 103.09 L 61.01 103.09 Q 56.948 116.488 52.505 128.681 L 52.505 128.681 L 34.241 128.681 L 34.241 128.681 Q 27.519 108.233 21.749 85.5 L 21.749 85.5 L 21.749 85.5 Q 15.979 62.768 11.54 40.67 L 11.54 40.67 L 33.003 40.67 L 33.003 40.67 Q 34.279 48.162 35.811 56.227 L 35.811 56.227 L 35.811 56.227 Q 37.342 64.292 39.002 72.42 L 39.002 72.42 L 39.002 72.42 Q 40.661 80.547 42.384 88.167 L 42.384 88.167 L 42.384 88.167 Q 44.107 95.788 45.894 102.265 L 45.894 102.265 L 45.894 102.265 Q 48.18 96.041 50.339 89.057 L 50.339 89.057 L 50.339 89.057 Q 52.498 82.071 54.53 75.087 L 54.53 75.087 L 54.53 75.087 Q 56.562 68.101 58.276 61.625 L 58.276 61.625 L 58.276 61.625 Q 59.991 55.147 61.388 50.067 L 61.388 50.067 L 61.388 50.067 Z  M 135.111 95.788 L 135.111 95.788 L 135.111 95.788 Q 135.111 86.898 137.842 80.23 L 137.842 80.23 L 137.842 80.23 Q 140.572 73.563 145.017 69.117 L 145.017 69.117 L 145.017 69.117 Q 149.462 64.673 155.241 62.387 L 155.241 62.387 L 155.241 62.387 Q 161.019 60.101 167.115 60.101 L 167.115 60.101 L 167.115 60.101 Q 181.339 60.101 189.594 68.8 L 189.594 68.8 L 189.594 68.8 Q 197.849 77.5 197.849 94.391 L 197.849 94.391 L 197.849 94.391 Q 197.849 96.041 197.722 98.01 L 197.722 98.01 L 197.722 98.01 Q 197.595 99.979 197.468 101.503 L 197.468 101.503 L 154.542 101.503 L 154.542 101.503 Q 155.177 107.345 160.003 110.774 L 160.003 110.774 L 160.003 110.774 Q 164.829 114.203 172.957 114.203 L 172.957 114.203 L 172.957 114.203 Q 178.164 114.203 183.181 113.25 L 183.181 113.25 L 183.181 113.25 Q 188.197 112.298 191.372 110.901 L 191.372 110.901 L 193.912 126.268 L 193.912 126.268 Q 192.388 127.03 189.848 127.792 L 189.848 127.792 L 189.848 127.792 Q 187.308 128.553 184.197 129.125 L 184.197 129.125 L 184.197 129.125 Q 181.085 129.697 177.529 130.077 L 177.529 130.077 L 177.529 130.077 Q 173.973 130.459 170.417 130.459 L 170.417 130.459 L 170.417 130.459 Q 161.4 130.459 154.733 127.792 L 154.733 127.792 L 154.733 127.792 Q 148.065 125.125 143.684 120.489 L 143.684 120.489 L 143.684 120.489 Q 139.302 115.854 137.207 109.504 L 137.207 109.504 L 137.207 109.504 Q 135.111 103.154 135.111 95.788 Z  M 154.542 88.548 L 179.561 88.548 L 179.561 88.548 Q 179.434 86.136 178.736 83.849 L 178.736 83.849 L 178.736 83.849 Q 178.037 81.564 176.577 79.785 L 176.577 79.785 L 176.577 79.785 Q 175.116 78.008 172.894 76.864 L 172.894 76.864 L 172.894 76.864 Q 170.671 75.721 167.369 75.721 L 167.369 75.721 L 167.369 75.721 Q 164.194 75.721 161.908 76.801 L 161.908 76.801 L 161.908 76.801 Q 159.622 77.881 158.098 79.659 L 158.098 79.659 L 158.098 79.659 Q 156.574 81.437 155.749 83.786 L 155.749 83.786 L 155.749 83.786 Q 154.923 86.136 154.542 88.548 L 154.542 88.548 L 154.542 88.548 Z  M 241.791 114.33 L 239.124 129.95 L 239.124 129.95 Q 230.869 129.824 225.726 128.173 L 225.726 128.173 L 225.726 128.173 Q 220.582 126.521 217.598 123.537 L 217.598 123.537 L 217.598 123.537 Q 214.613 120.553 213.534 116.298 L 213.534 116.298 L 213.534 116.298 Q 212.454 112.044 212.454 106.709 L 212.454 106.709 L 212.454 33.176 L 231.377 30.128 L 231.377 102.899 L 231.377 102.899 Q 231.377 105.44 231.758 107.471 L 231.758 107.471 L 231.758 107.471 Q 232.139 109.504 233.219 110.901 L 233.219 110.901 L 233.219 110.901 Q 234.298 112.298 236.33 113.187 L 236.33 113.187 L 236.33 113.187 Q 238.362 114.075 241.791 114.33 L 241.791 114.33 L 241.791 114.33 Z  M 249.411 95.279 L 249.411 95.279 L 249.411 95.279 Q 249.411 88.041 251.761 81.627 L 251.761 81.627 L 251.761 81.627 Q 254.11 75.214 258.555 70.451 L 258.555 70.451 L 258.555 70.451 Q 263 65.688 269.35 62.894 L 269.35 62.894 L 269.35 62.894 Q 275.7 60.101 283.828 60.101 L 283.828 60.101 L 283.828 60.101 Q 289.162 60.101 293.607 61.053 L 293.607 61.053 L 293.607 61.053 Q 298.052 62.006 302.243 63.783 L 302.243 63.783 L 298.306 78.897 L 298.306 78.897 Q 295.639 77.881 292.464 77.119 L 292.464 77.119 L 292.464 77.119 Q 289.289 76.357 285.352 76.357 L 285.352 76.357 L 285.352 76.357 Q 276.97 76.357 272.843 81.564 L 272.843 81.564 L 272.843 81.564 Q 268.715 86.771 268.715 95.279 L 268.715 95.279 L 268.715 95.279 Q 268.715 104.297 272.589 109.25 L 272.589 109.25 L 272.589 109.25 Q 276.462 114.203 286.114 114.203 L 286.114 114.203 L 286.114 114.203 Q 289.543 114.203 293.48 113.568 L 293.48 113.568 L 293.48 113.568 Q 297.417 112.932 300.719 111.536 L 300.719 111.536 L 303.386 127.03 L 303.386 127.03 Q 300.084 128.426 295.131 129.443 L 295.131 129.443 L 295.131 129.443 Q 290.178 130.459 284.209 130.459 L 284.209 130.459 L 284.209 130.459 Q 275.065 130.459 268.461 127.728 L 268.461 127.728 L 268.461 127.728 Q 261.857 124.998 257.603 120.298 L 257.603 120.298 L 257.603 120.298 Q 253.348 115.599 251.38 109.186 L 251.38 109.186 L 251.38 109.186 Q 249.411 102.773 249.411 95.279 Z  M 375.395 95.153 L 375.395 95.153 L 375.395 95.153 Q 375.395 103.027 373.109 109.567 L 373.109 109.567 L 373.109 109.567 Q 370.823 116.107 366.505 120.743 L 366.505 120.743 L 366.505 120.743 Q 362.187 125.378 356.155 127.919 L 356.155 127.919 L 356.155 127.919 Q 350.122 130.459 342.629 130.459 L 342.629 130.459 L 342.629 130.459 Q 335.263 130.459 329.231 127.919 L 329.231 127.919 L 329.231 127.919 Q 323.198 125.378 318.88 120.743 L 318.88 120.743 L 318.88 120.743 Q 314.562 116.107 312.149 109.567 L 312.149 109.567 L 312.149 109.567 Q 309.736 103.027 309.736 95.153 L 309.736 95.153 L 309.736 95.153 Q 309.736 87.279 312.213 80.802 L 312.213 80.802 L 312.213 80.802 Q 314.689 74.325 319.071 69.753 L 319.071 69.753 L 319.071 69.753 Q 323.452 65.18 329.485 62.64 L 329.485 62.64 L 329.485 62.64 Q 335.517 60.101 342.629 60.101 L 342.629 60.101 L 342.629 60.101 Q 349.868 60.101 355.901 62.64 L 355.901 62.64 L 355.901 62.64 Q 361.933 65.18 366.251 69.753 L 366.251 69.753 L 366.251 69.753 Q 370.569 74.325 372.982 80.802 L 372.982 80.802 L 372.982 80.802 Q 375.395 87.279 375.395 95.153 Z  M 356.091 95.153 L 356.091 95.153 L 356.091 95.153 Q 356.091 86.39 352.599 81.373 L 352.599 81.373 L 352.599 81.373 Q 349.106 76.357 342.629 76.357 L 342.629 76.357 L 342.629 76.357 Q 336.152 76.357 332.596 81.373 L 332.596 81.373 L 332.596 81.373 Q 329.04 86.39 329.04 95.153 L 329.04 95.153 L 329.04 95.153 Q 329.04 103.916 332.596 109.059 L 332.596 109.059 L 332.596 109.059 Q 336.152 114.203 342.629 114.203 L 342.629 114.203 L 342.629 114.203 Q 349.106 114.203 352.599 109.059 L 352.599 109.059 L 352.599 109.059 Q 356.091 103.916 356.091 95.153 Z  M 426.703 128.681 L 426.703 93.248 L 426.703 93.248 Q 426.703 84.104 424.354 80.294 L 424.354 80.294 L 424.354 80.294 Q 422.004 76.483 416.289 76.483 L 416.289 76.483 L 416.289 76.483 Q 414.511 76.483 412.606 76.674 L 412.606 76.674 L 412.606 76.674 Q 410.701 76.864 408.923 77.119 L 408.923 77.119 L 408.923 128.681 L 390 128.681 L 390 64.164 L 390 64.164 Q 392.413 63.53 395.652 62.831 L 395.652 62.831 L 395.652 62.831 Q 398.89 62.132 402.51 61.561 L 402.51 61.561 L 402.51 61.561 Q 406.129 60.989 409.939 60.672 L 409.939 60.672 L 409.939 60.672 Q 413.749 60.354 417.432 60.354 L 417.432 60.354 L 417.432 60.354 Q 424.671 60.354 429.18 62.196 L 429.18 62.196 L 429.18 62.196 Q 433.688 64.037 436.609 66.577 L 436.609 66.577 L 436.609 66.577 Q 440.673 63.656 445.944 62.006 L 445.944 62.006 L 445.944 62.006 Q 451.214 60.354 455.659 60.354 L 455.659 60.354 L 455.659 60.354 Q 463.66 60.354 468.804 62.577 L 468.804 62.577 L 468.804 62.577 Q 473.947 64.799 476.995 68.863 L 476.995 68.863 L 476.995 68.863 Q 480.043 72.928 481.186 78.516 L 481.186 78.516 L 481.186 78.516 Q 482.329 84.104 482.329 90.962 L 482.329 90.962 L 482.329 128.681 L 463.406 128.681 L 463.406 93.248 L 463.406 93.248 Q 463.406 84.104 461.057 80.294 L 461.057 80.294 L 461.057 80.294 Q 458.707 76.483 452.992 76.483 L 452.992 76.483 L 452.992 76.483 Q 451.468 76.483 448.738 77.246 L 448.738 77.246 L 448.738 77.246 Q 446.007 78.008 444.229 79.151 L 444.229 79.151 L 444.229 79.151 Q 445.118 82.071 445.372 85.31 L 445.372 85.31 L 445.372 85.31 Q 445.626 88.548 445.626 92.232 L 445.626 92.232 L 445.626 128.681 L 426.703 128.681 L 426.703 128.681 Z  M 496.299 95.788 L 496.299 95.788 L 496.299 95.788 Q 496.299 86.898 499.03 80.23 L 499.03 80.23 L 499.03 80.23 Q 501.76 73.563 506.205 69.117 L 506.205 69.117 L 506.205 69.117 Q 510.65 64.673 516.429 62.387 L 516.429 62.387 L 516.429 62.387 Q 522.207 60.101 528.303 60.101 L 528.303 60.101 L 528.303 60.101 Q 542.527 60.101 550.782 68.8 L 550.782 68.8 L 550.782 68.8 Q 559.037 77.5 559.037 94.391 L 559.037 94.391 L 559.037 94.391 Q 559.037 96.041 558.91 98.01 L 558.91 98.01 L 558.91 98.01 Q 558.783 99.979 558.656 101.503 L 558.656 101.503 L 515.73 101.503 L 515.73 101.503 Q 516.365 107.345 521.191 110.774 L 521.191 110.774 L 521.191 110.774 Q 526.017 114.203 534.145 114.203 L 534.145 114.203 L 534.145 114.203 Q 539.352 114.203 544.369 113.25 L 544.369 113.25 L 544.369 113.25 Q 549.385 112.298 552.56 110.901 L 552.56 110.901 L 555.1 126.268 L 555.1 126.268 Q 553.576 127.03 551.036 127.792 L 551.036 127.792 L 551.036 127.792 Q 548.496 128.553 545.385 129.125 L 545.385 129.125 L 545.385 129.125 Q 542.273 129.697 538.717 130.077 L 538.717 130.077 L 538.717 130.077 Q 535.161 130.459 531.605 130.459 L 531.605 130.459 L 531.605 130.459 Q 522.588 130.459 515.92 127.792 L 515.92 127.792 L 515.92 127.792 Q 509.253 125.125 504.872 120.489 L 504.872 120.489 L 504.872 120.489 Q 500.49 115.854 498.395 109.504 L 498.395 109.504 L 498.395 109.504 Q 496.299 103.154 496.299 95.788 Z  M 515.73 88.548 L 540.749 88.548 L 540.749 88.548 Q 540.622 86.136 539.924 83.849 L 539.924 83.849 L 539.924 83.849 Q 539.225 81.564 537.765 79.785 L 537.765 79.785 L 537.765 79.785 Q 536.304 78.008 534.082 76.864 L 534.082 76.864 L 534.082 76.864 Q 531.859 75.721 528.557 75.721 L 528.557 75.721 L 528.557 75.721 Q 525.382 75.721 523.096 76.801 L 523.096 76.801 L 523.096 76.801 Q 520.81 77.881 519.286 79.659 L 519.286 79.659 L 519.286 79.659 Q 517.762 81.437 516.937 83.786 L 516.937 83.786 L 516.937 83.786 Q 516.111 86.136 515.73 88.548 L 515.73 88.548 L 515.73 88.548 Z " fill="url(#_lgradient_0)" mask="url(#_mask_fEAmSP0jqdKwOoryEUklqo9IjNjxrjap)" vector-effect="non-scaling-stroke" stroke-width="2" stroke="rgb(255,255,255)" stroke-linejoin="miter" stroke-linecap="square" stroke-miterlimit="3"/></svg>