<?xml version="1.0" encoding="UTF-8" standalone="no"?><!-- Generator: Gravit.io --><svg xmlns="http://www.w3.org/2000/svg" xmlns:xlink="http://www.w3.org/1999/xlink" style="isolation:isolate" viewBox="0 0 126 126" width="126pt" height="126pt"><defs><radialGradient id="_rgradient_2" fx="86.26062971569937%" fy="25.847232697007616%" cx="50%" cy="50%" r="50%"><stop offset="0%" style="stop-color:#8B8DFF"/><stop offset="100%" style="stop-color:#620255"/></radialGradient></defs><path d="M 9.32 0.5 L 117.68 0.5 C 122.548 0.5 126.5 4.452 126.5 9.32 L 126.5 117.68 C 126.5 122.548 122.548 126.5 117.68 126.5 L 9.32 126.5 C 4.452 126.5 0.5 122.548 0.5 117.68 L 0.5 9.32 C 0.5 4.452 4.452 0.5 9.32 0.5 Z" style="stroke:none;fill:url(#_rgradient_2);stroke-miterlimit:10;"/><path d="M 9.32 0.5 L 117.68 0.5 C 122.548 0.5 126.5 4.452 126.5 9.32 L 126.5 117.68 C 126.5 122.548 122.548 126.5 117.68 126.5 L 9.32 126.5 C 4.452 126.5 0.5 122.548 0.5 117.68 L 0.5 9.32 C 0.5 4.452 4.452 0.5 9.32 0.5 Z" style="fill:none;stroke:#000000;stroke-width:3;stroke-linecap:square;stroke-miterlimit:2;"/><mask id="_mask_vA6CRbrpoi6Lzi2M8xcK8ilTCyHezJKJ"><path d=" M 87 83 L 103.152 83 C 107.483 83 111 79.483 111 75.152 L 111 44.684 C 111 40.352 107.483 36.836 103.152 36.836 L 24.848 36.836 C 20.517 36.836 17 40.352 17 44.684 L 17 75.152 C 17 79.483 20.517 83 24.848 83 L 69 83 L 87 103.836 L 87 83 Z " fill-rule="evenodd" fill="white" stroke="none"/></mask><path d=" M 87 83 L 103.152 83 C 107.483 83 111 79.483 111 75.152 L 111 44.684 C 111 40.352 107.483 36.836 103.152 36.836 L 24.848 36.836 C 20.517 36.836 17 40.352 17 44.684 L 17 75.152 C 17 79.483 20.517 83 24.848 83 L 69 83 L 87 103.836 L 87 83 Z " fill-rule="evenodd" fill="none"/><path d=" M 87 83 L 103.152 83 C 107.483 83 111 79.483 111 75.152 L 111 44.684 C 111 40.352 107.483 36.836 103.152 36.836 L 24.848 36.836 C 20.517 36.836 17 40.352 17 44.684 L 17 75.152 C 17 79.483 20.517 83 24.848 83 L 69 83 L 87 103.836 L 87 83 Z " fill-rule="evenodd" fill="none" mask="url(#_mask_vA6CRbrpoi6Lzi2M8xcK8ilTCyHezJKJ)" vector-effect="non-scaling-stroke" stroke-width="8" stroke="rgb(255,255,255)" stroke-linejoin="miter" stroke-linecap="square" stroke-miterlimit="3"/></svg>